# xmcd
#
# Track frame offsets:
#	150
#	20334
#	42293
#	66446
#	86142
#	107215
#	129901
#	150857
#	166216
#	197908
#	218078
#	235047
#	254656
#	290450
#	309977
#
# Disc length: 4586
#
# Revision: 1
# Processed by: cddbd v1.5.1PL0 Copyright (c) Steve Scherf et al.
# Submitted via: ExactAudioCopy v0.90b4
# Normalized: r0:DSETVAR1
#
DISCID=cb11e80f
DTITLE=Various Artist - Blues Way vol. 9
DYEAR=1900
DGENRE=Blues
TTITLE0=John Miles - Everything's OK
TTITLE1=Jimmie Vaughan - The deep end
TTITLE2=Kenny Neal - Congo Square
TTITLE3=Deborah Coleman - Deserted highway
TTITLE4=Colin James - Saviour
TTITLE5=Rusty Zinn - The chill
TTITLE6=Carey Bell - Hard working woman
TTITLE7=Bill Sims - When do I get to be called a man
TTITLE8=Junior Wells - Mystery train
TTITLE9=The Boneshakers - Yesterday's gone
TTITLE10=James Cotton, Ronnie Earl and Kim Wilson - Mighty fine boogie
TTITLE11=Robert Cray - Walk around time
TTITLE12=Ronnie Earl and Irma Thomas - New Vietnam blues
TTITLE13=Crosby, Steals and Nash - Till it shines
TTITLE14=Tino Gonzales - Mi tiera
EXTD=
EXTT0=sdf
EXTT1=
EXTT2=
EXTT3=
EXTT4=
EXTT5=
EXTT6=
EXTT7=
EXTT8=
EXTT9=
EXTT10=
EXTT11=
EXTT12=
EXTT13=
EXTT14=
PLAYORDER=
